<svg width="9" height="5" viewBox="0 0 9 5" fill="none" xmlns="http://www.w3.org/2000/svg">
<path d="M8.09746 4.79648C8.0162 4.68889 7.7736 4.36773 7.62911 4.18259C7.33973 3.81178 6.94432 3.31906 6.51779 2.82779C6.08909 2.33405 5.63875 1.85319 5.23868 1.49969C5.03807 1.32244 4.86184 1.18775 4.71642 1.10008C4.57966 1.01763 4.49887 1.00049 4.49887 1.00049C4.49887 1.00049 4.42045 1.01764 4.28369 1.10008C4.13827 1.18775 3.96205 1.32243 3.76144 1.49969C3.36136 1.85318 2.91102 2.33405 2.48233 2.8278C2.05579 3.31907 1.66038 3.8118 1.371 4.18261C1.22652 4.36776 0.98425 4.68846 0.902992 4.79605C0.739237 5.0184 0.4259 5.06635 0.203552 4.9026C-0.0187971 4.73884 -0.0662958 4.42584 0.0974596 4.2035L0.0986345 4.20194C0.18376 4.08923 0.435172 3.75637 0.582653 3.56739C0.87857 3.1882 1.28552 2.68093 1.72723 2.17219C2.16677 1.66594 2.65055 1.14681 3.0993 0.750305C3.3231 0.552559 3.54996 0.374748 3.7674 0.243664C3.97112 0.120853 4.22905 -2.51322e-06 4.50006 -1.96696e-07C4.77107 2.1199e-06 5.02899 0.120858 5.23271 0.243668C5.45015 0.374752 5.67701 0.552562 5.90081 0.750307C6.34956 1.14681 6.83334 1.66594 7.27288 2.17218C7.71459 2.68091 8.12154 3.18818 8.41746 3.56736C8.565 3.75641 8.81631 4.08914 8.90134 4.20172L8.90242 4.20314C9.06618 4.42549 9.01891 4.73881 8.79656 4.90256C8.57422 5.06632 8.26122 5.01881 8.09746 4.79648Z" fill="#9DA4AE"/>
</svg>
