<svg width="5" height="9" viewBox="0 0 5 9" fill="none" xmlns="http://www.w3.org/2000/svg">
<path d="M0.203518 8.09744C0.311101 8.01618 0.632263 7.77357 0.817403 7.62909C1.18821 7.33971 1.68094 6.9443 2.1722 6.51776C2.66595 6.08907 3.14681 5.63873 3.5003 5.23865C3.67756 5.03804 3.81224 4.86182 3.89991 4.7164C3.98236 4.57963 3.9995 4.49884 3.9995 4.49884C3.9995 4.49884 3.98236 4.42043 3.89991 4.28366C3.81225 4.13825 3.67756 3.96202 3.50031 3.76141C3.14681 3.36134 2.66594 2.911 2.17219 2.4823C1.68093 2.05577 1.18819 1.66036 0.817381 1.37098C0.632238 1.22649 0.31153 0.984226 0.203946 0.902968C-0.0184025 0.739213 -0.0663599 0.425876 0.0973952 0.203528C0.26115 -0.0188206 0.574149 -0.06632 0.796498 0.0974354L0.798191 0.098714C0.911029 0.183941 1.2437 0.435208 1.43261 0.582629C1.8118 0.878547 2.31907 1.2855 2.8278 1.7272C3.33405 2.16675 3.85319 2.65053 4.24969 3.09928C4.44743 3.32308 4.62525 3.54994 4.75633 3.76738C4.87914 3.9711 5 4.22903 4.99999 4.50004C4.99999 4.77104 4.87914 5.02897 4.75633 5.23269C4.62524 5.45013 4.44743 5.67699 4.24969 5.90079C3.85319 6.34953 3.33406 6.83331 2.82781 7.27286C2.31908 7.71456 1.81182 8.12152 1.43264 8.41744C1.2436 8.56496 0.910911 8.81624 0.798306 8.90129L0.79685 8.9024C0.574502 9.06615 0.261186 9.01889 0.0974293 8.79654C-0.0663217 8.5742 -0.0188113 8.2612 0.203518 8.09744Z" fill="#9DA4AE"/>
</svg>
