<svg width="9" height="5" viewBox="0 0 9 5" fill="none" xmlns="http://www.w3.org/2000/svg">
<path d="M0.902478 0.203524C0.983736 0.311106 1.22634 0.632269 1.37083 0.817409C1.66021 1.18822 2.05561 1.68094 2.48215 2.17221C2.91085 2.66595 3.36119 3.14681 3.76126 3.50031C3.96187 3.67756 4.13809 3.81225 4.28351 3.89992C4.42028 3.98237 4.50107 3.99951 4.50107 3.99951C4.50107 3.99951 4.57949 3.98236 4.71625 3.89992C4.86167 3.81225 5.03789 3.67757 5.2385 3.50031C5.63858 3.14682 6.08892 2.66595 6.51761 2.1722C6.94415 1.68093 7.33955 1.1882 7.62894 0.817386C7.77342 0.632244 8.01569 0.311535 8.09695 0.203952C8.2607 -0.0183967 8.57404 -0.0663542 8.79639 0.0974012C9.01874 0.261156 9.06623 0.574155 8.90248 0.796504L8.9013 0.79806C8.81618 0.910765 8.56477 1.24363 8.41729 1.43261C8.12137 1.8118 7.71441 2.31907 7.27271 2.82781C6.83316 3.33406 6.34938 3.85319 5.90064 4.24969C5.67684 4.44744 5.44998 4.62525 5.23253 4.75634C5.02882 4.87915 4.77089 5 4.49988 5C4.22887 5 3.97095 4.87914 3.76723 4.75633C3.54979 4.62525 3.32293 4.44744 3.09913 4.24969C2.65038 3.85319 2.1666 3.33406 1.72705 2.82782C1.28535 2.31909 0.878398 1.81182 0.582479 1.43264C0.434942 1.24359 0.183627 0.910858 0.0985969 0.798282L0.0975196 0.796855C-0.0662368 0.574508 -0.0189732 0.261191 0.203374 0.097435C0.425715 -0.0663161 0.738717 -0.0188055 0.902478 0.203524Z" fill="#161616"/>
</svg>
