<svg width="9" height="5" viewBox="0 0 9 5" fill="none" xmlns="http://www.w3.org/2000/svg">
<path d="M8.09752 4.79648C8.01626 4.68889 7.77366 4.36773 7.62917 4.18259C7.33979 3.81178 6.94438 3.31906 6.51785 2.82779C6.08915 2.33405 5.63881 1.85319 5.23874 1.49969C5.03813 1.32244 4.86191 1.18775 4.71648 1.10008C4.57972 1.01763 4.49893 1.00049 4.49893 1.00049C4.49893 1.00049 4.42051 1.01764 4.28375 1.10008C4.13833 1.18775 3.96211 1.32243 3.7615 1.49969C3.36142 1.85318 2.91108 2.33405 2.48239 2.8278C2.05585 3.31907 1.66045 3.8118 1.37106 4.18261C1.22658 4.36776 0.984311 4.68846 0.903053 4.79605C0.739298 5.0184 0.425961 5.06635 0.203613 4.9026C-0.0187361 4.73884 -0.0662348 4.42584 0.0975206 4.2035L0.0986956 4.20194C0.183821 4.08923 0.435233 3.75637 0.582714 3.56739C0.878631 3.1882 1.28559 2.68093 1.72729 2.17219C2.16684 1.66594 2.65062 1.14681 3.09936 0.750305C3.32316 0.552559 3.55002 0.374748 3.76747 0.243664C3.97118 0.120853 4.22911 -2.51322e-06 4.50012 -1.96696e-07C4.77113 2.1199e-06 5.02905 0.120858 5.23277 0.243668C5.45021 0.374752 5.67707 0.552562 5.90087 0.750307C6.34962 1.14681 6.8334 1.66594 7.27295 2.17218C7.71465 2.68091 8.1216 3.18818 8.41752 3.56736C8.56506 3.75641 8.81637 4.08914 8.9014 4.20172L8.90248 4.20314C9.06624 4.42549 9.01897 4.73881 8.79663 4.90256C8.57428 5.06632 8.26128 5.01881 8.09752 4.79648Z" fill="#161616"/>
</svg>
