<svg width="80" height="80" viewBox="0 0 80 80" fill="none" xmlns="http://www.w3.org/2000/svg">
<path fill-rule="evenodd" clip-rule="evenodd" d="M39.9994 4.16666C30.3344 4.16666 22.4994 12.0017 22.4994 21.6667C22.4994 31.3316 30.3344 39.1667 39.9994 39.1667C49.6643 39.1667 57.4994 31.3316 57.4994 21.6667C57.4994 12.0017 49.6643 4.16666 39.9994 4.16666ZM27.4994 21.6667C27.4994 14.7631 33.0958 9.16666 39.9994 9.16666C46.9029 9.16666 52.4994 14.7631 52.4994 21.6667C52.4994 28.5702 46.9029 34.1667 39.9994 34.1667C33.0958 34.1667 27.4994 28.5702 27.4994 21.6667Z" fill="#161616"/>
<path fill-rule="evenodd" clip-rule="evenodd" d="M60.7622 50.264C60.2201 49.9582 59.7414 49.688 59.3537 49.4572C47.5069 42.4031 32.493 42.4031 20.6462 49.4572C20.2585 49.6881 19.7795 49.9583 19.2373 50.2642C16.8613 51.6047 13.2696 53.631 10.809 56.0395C9.27012 57.5457 7.80794 59.5307 7.54212 61.9625C7.25944 64.5487 8.38765 66.9756 10.651 69.1319C14.5559 72.8521 19.2418 75.8333 25.3028 75.8333H54.6971C60.7581 75.8333 65.444 72.8521 69.3489 69.1319C71.6122 66.9756 72.7405 64.5487 72.4578 61.9625C72.192 59.5307 70.7298 57.5457 69.1909 56.0394C66.7303 53.631 63.1382 51.6045 60.7622 50.264ZM23.2042 53.7533C33.4748 47.6378 46.5251 47.6378 56.7957 53.7533C57.3553 54.0865 57.9685 54.4344 58.6108 54.7988C60.9862 56.1464 63.7598 57.7199 65.6934 59.6126C66.8938 60.7876 67.4055 61.7569 67.4874 62.5058C67.5524 63.1004 67.4021 64.0808 65.9 65.5118C62.4471 68.8014 58.9385 70.8333 54.6971 70.8333H25.3028C21.0614 70.8333 17.5528 68.8014 14.0999 65.5118C12.5978 64.0808 12.4475 63.1004 12.5125 62.5058C12.5944 61.7569 13.1061 60.7876 14.3065 59.6126C16.2401 57.7199 19.0136 56.1465 21.3889 54.7989C22.0311 54.4346 22.6447 54.0865 23.2042 53.7533Z" fill="#161616"/>
</svg>
