<svg width="221" height="66" viewBox="0 0 221 66" fill="none" xmlns="http://www.w3.org/2000/svg">
<g clip-path="url(#clip0_6284_35263)">
<path d="M63.9521 39.8301L40.7019 62.8658C36.8236 66.7082 30.5371 66.7082 26.6589 62.8658L3.40869 39.8301C-0.469564 35.9876 -0.469564 29.7592 3.40869 25.9167L26.6589 2.88106C30.5371 -0.961411 36.8236 -0.961411 40.7019 2.88106L63.9521 25.9167C67.8303 29.7592 67.8303 35.9876 63.9521 39.8301Z" fill="white"/>
<path d="M31.6707 44.6467H14.8327C14.3459 44.6467 13.9236 44.4679 13.5657 44.1133C13.2047 43.7588 13.0273 43.3372 13.0273 42.8581V37.706C13.0273 35.7992 13.714 34.167 15.0874 32.8063C16.4188 31.4456 18.0694 30.7653 20.0327 30.7653H26.4707C27.3991 30.7653 28.1922 30.4395 28.8499 29.7911C29.5043 29.1427 29.8331 28.357 29.8331 27.4339C29.8331 26.5108 29.5043 25.7219 28.8499 25.0607C28.1954 24.3995 27.4024 24.0705 26.4707 24.0705H15.4355C14.9487 24.0705 14.5264 23.898 14.1654 23.5531C13.8043 23.2081 13.627 22.7833 13.627 22.2818C13.627 21.7804 13.8075 21.3811 14.1654 21.0266C14.5232 20.672 14.9487 20.4932 15.4355 20.4932H26.4707C28.3953 20.4932 30.0427 21.1735 31.4192 22.5342C32.7926 23.8533 33.4793 25.4887 33.4793 27.4339C33.4793 29.3791 32.7926 30.9729 31.4192 32.3336C30.0459 33.6943 28.3953 34.3746 26.4707 34.3746H20.0327C19.101 34.3746 18.3047 34.7004 17.6374 35.3488C16.9701 35.9972 16.638 36.7829 16.638 37.706V41.0694H31.6675C32.1543 41.0694 32.5766 41.2419 32.9344 41.5868C33.2923 41.9318 33.4728 42.3566 33.4728 42.8581C33.4728 43.3595 33.2923 43.7588 32.9344 44.1133C32.5798 44.4679 32.1575 44.6467 31.6707 44.6467Z" fill="#E99A00"/>
<path d="M39.4069 44.6468C38.9201 44.6468 38.4978 44.4679 38.1399 44.1134C37.7789 43.7588 37.6016 43.3372 37.6016 42.8581V22.2787C37.6016 21.7964 37.7821 21.3779 38.1399 21.0234C38.4978 20.6689 38.9233 20.49 39.4069 20.49H49.649C51.5736 20.49 53.221 21.1703 54.5975 22.531C55.9709 23.8917 56.6576 25.527 56.6576 27.4307V28.2803C56.6576 30.1872 55.9709 31.8194 54.5975 33.1832C53.2242 34.5439 51.5736 35.2242 49.649 35.2242H41.2155V42.8581C41.2155 43.3404 41.0414 43.7588 40.6932 44.1134C40.3418 44.4679 39.913 44.6468 39.4069 44.6468ZM41.2155 31.6054H49.649C50.5807 31.6054 51.3705 31.2796 52.0282 30.6312C52.6826 29.9828 53.0114 29.197 53.0114 28.2739V27.4243C53.0114 26.5044 52.6826 25.7123 52.0282 25.0511C51.3737 24.39 50.5807 24.061 49.649 24.061H41.2155V31.6054Z" fill="#E99A00"/>
<path d="M77.31 19.3433H75.9238C75.8116 19.3433 75.7207 19.4334 75.7207 19.5445V21.0201C75.7207 21.1313 75.8116 21.2214 75.9238 21.2214H77.31C77.4222 21.2214 77.5131 21.1313 77.5131 21.0201V19.5445C77.5131 19.4334 77.4222 19.3433 77.31 19.3433Z" fill="white"/>
<path d="M89.812 16.1077H88.4258C88.3136 16.1077 88.2227 16.1978 88.2227 16.3089V17.7846C88.2227 17.8957 88.3136 17.9858 88.4258 17.9858H89.812C89.9242 17.9858 90.0151 17.8957 90.0151 17.7846V16.3089C90.0151 16.1978 89.9242 16.1077 89.812 16.1077Z" fill="white"/>
<path d="M87.3237 16.1077H85.9375C85.8253 16.1077 85.7344 16.1978 85.7344 16.3089V17.7846C85.7344 17.8957 85.8253 17.9858 85.9375 17.9858H87.3237C87.4359 17.9858 87.5268 17.8957 87.5268 17.7846V16.3089C87.5268 16.1978 87.4359 16.1077 87.3237 16.1077Z" fill="white"/>
<path d="M98.4995 16.1077H97.1133C97.0011 16.1077 96.9102 16.1978 96.9102 16.3089V17.7846C96.9102 17.8957 97.0011 17.9858 97.1133 17.9858H98.4995C98.6117 17.9858 98.7026 17.8957 98.7026 17.7846V16.3089C98.7026 16.1978 98.6117 16.1077 98.4995 16.1077Z" fill="white"/>
<path d="M96.0112 16.1077H94.625C94.5128 16.1077 94.4219 16.1978 94.4219 16.3089V17.7846C94.4219 17.8957 94.5128 17.9858 94.625 17.9858H96.0112C96.1234 17.9858 96.2143 17.8957 96.2143 17.7846V16.3089C96.2143 16.1978 96.1234 16.1077 96.0112 16.1077Z" fill="white"/>
<path d="M112.982 28.2484C113.836 28.2484 114.448 28.044 114.816 27.6319C115.184 27.2231 115.367 26.5779 115.367 25.7027V14.7119C115.367 14.5778 115.3 14.5107 115.164 14.5107H113.859C113.723 14.5107 113.655 14.5778 113.655 14.7119V25.6037C113.655 26.0093 113.578 26.2872 113.42 26.4437C113.262 26.6002 113.014 26.6769 112.675 26.6769H111.389C111.37 26.6769 111.354 26.6769 111.334 26.6801H110.825C110.528 26.6801 110.245 26.5555 109.98 26.3064C109.713 26.0573 109.574 25.5877 109.561 24.901C109.574 24.7668 109.584 24.6231 109.59 24.4762C109.597 24.3293 109.6 24.1791 109.6 24.0322C109.6 22.4831 109.252 21.362 108.559 20.6689C107.865 19.9757 106.914 19.6276 105.702 19.6276C104.49 19.6276 103.539 19.9757 102.846 20.6689C102.153 21.362 101.805 22.4831 101.805 24.0322V24.4474C101.805 24.5752 101.811 24.7062 101.824 24.8403C101.824 25.1917 101.785 25.4823 101.711 25.7187C101.634 25.955 101.537 26.1435 101.415 26.284C101.292 26.4246 101.153 26.5268 101.005 26.5875C100.857 26.6482 100.705 26.6769 100.557 26.6769H99.2933C98.7356 26.6769 98.2907 26.5619 97.9586 26.3319C97.6266 26.102 97.4589 25.757 97.4589 25.3003V20.1897C97.4589 20.0556 97.3912 19.9885 97.2558 19.9885H95.9502C95.8148 19.9885 95.7471 20.0556 95.7471 20.1897V25.6037C95.7471 26.0093 95.6697 26.2872 95.5117 26.4437C95.3538 26.6002 95.1055 26.6769 94.767 26.6769H93.3808C93.3582 26.6769 93.3389 26.6769 93.3163 26.6801C93.2905 26.6801 93.2647 26.6769 93.239 26.6769H90.4052C90.2698 26.6769 90.1666 26.6833 90.0989 26.6961C90.6696 26.3064 91.1145 25.8145 91.4336 25.2204C91.7528 24.6263 91.914 23.9875 91.914 23.3008C91.914 22.761 91.8334 22.2659 91.6689 21.8155C91.5045 21.3652 91.2563 20.9755 90.9242 20.6529C90.5922 20.3303 90.1731 20.078 89.6702 19.8959C89.1673 19.7138 88.5676 19.6244 87.8745 19.6244C87.1814 19.6244 86.585 19.7138 86.0821 19.8959C85.5792 20.078 85.1601 20.3303 84.828 20.6529C84.4959 20.9755 84.2477 21.3652 84.0833 21.8155C83.9189 22.2659 83.8383 22.761 83.8383 23.3008C83.8383 23.9875 83.9995 24.6263 84.3186 25.2108C84.6378 25.7985 85.0762 26.2872 85.634 26.6769H82.6358C82.6358 26.6769 82.6358 26.6769 82.6326 26.6769H82.552C81.9943 26.6769 81.5494 26.5619 81.2173 26.3319C80.8853 26.102 80.7176 25.757 80.7176 25.3003V21.9273C80.7176 21.7932 80.6499 21.7261 80.5145 21.7261H79.2089C79.0735 21.7261 79.0058 21.7932 79.0058 21.9273V27.8268C79.0058 28.8233 78.7285 29.5452 78.1708 29.9892C77.6131 30.4331 76.9006 30.6567 76.0302 30.6567C75.6756 30.6567 75.3177 30.6088 74.9502 30.5162C74.5827 30.4204 74.2442 30.2639 73.9315 30.0403C73.6188 29.8167 73.3641 29.5132 73.1674 29.13C72.9708 28.7467 72.8709 28.2931 72.8709 27.6862C72.8709 27.0794 72.9805 26.5012 73.2061 25.9487C73.4286 25.3993 73.6639 24.9329 73.9089 24.556C73.9766 24.4474 73.9573 24.3612 73.8477 24.2941L72.7258 23.6873C72.5872 23.6042 72.4937 23.6138 72.4389 23.7064C72.0875 24.2047 71.778 24.8211 71.504 25.5558C71.2396 26.2904 71.1074 27.0538 71.1074 27.8491C71.1074 28.5646 71.2235 29.1938 71.4556 29.74C71.6845 30.2862 72.0069 30.7462 72.4227 31.1231C72.8354 31.5 73.3415 31.7874 73.9315 31.9823C74.5247 32.1771 75.1856 32.2761 75.9206 32.2761C77.4712 32.2761 78.6576 31.8864 79.4797 31.1039C80.3018 30.3213 80.7144 29.2354 80.7144 27.8491V27.6064C81.0948 28.0376 81.6396 28.2516 82.3457 28.2516H82.6326C82.6326 28.2516 82.6326 28.2516 82.6358 28.2516H85.102C85.4986 28.2516 85.9499 28.2324 86.4593 28.1909C86.9686 28.1494 87.449 28.0088 87.8971 27.7661C88.2904 28.0088 88.7063 28.1494 89.1415 28.1909C89.5767 28.2324 90.0377 28.2516 90.5277 28.2516H93.239C93.2615 28.2516 93.2809 28.2516 93.3034 28.2484C93.3292 28.2484 93.355 28.2516 93.3808 28.2516H95.0733C96.1468 28.2516 96.8561 27.9002 97.1946 27.2007C97.3719 27.5521 97.6234 27.814 97.949 27.9897C98.2746 28.1653 98.655 28.2516 99.0902 28.2516H100.415C100.796 28.2516 101.211 28.1941 101.66 28.0791C102.111 27.9641 102.475 27.6926 102.762 27.2614C103.101 27.6543 103.516 27.9386 104.007 28.1206C104.497 28.3027 105.061 28.3921 105.699 28.3921C106.324 28.3921 106.882 28.3059 107.375 28.1366C107.865 27.9609 108.281 27.6767 108.62 27.287C108.755 27.501 108.92 27.6735 109.11 27.8012C109.3 27.929 109.503 28.028 109.713 28.0951C109.922 28.1621 110.138 28.2069 110.354 28.226C110.573 28.2452 110.777 28.2548 110.967 28.2548H111.415C111.466 28.2548 111.512 28.2516 111.557 28.2484H112.982ZM87.8713 26.3319C87.2459 26.0892 86.7172 25.7219 86.2819 25.23C85.8467 24.7381 85.6307 24.1121 85.6307 23.3998C85.6307 22.6875 85.8403 22.1413 86.2626 21.7644C86.6849 21.3875 87.2233 21.1991 87.8745 21.1991C88.5257 21.1991 89.0641 21.3875 89.48 21.7644C89.9023 22.1413 90.1118 22.6715 90.1118 23.3998C90.1118 24.128 89.8959 24.7381 89.4606 25.23C89.0254 25.7219 88.4967 26.0892 87.8713 26.3319ZM107.363 26.1499C107.014 26.5939 106.463 26.8174 105.699 26.8174C104.935 26.8174 104.38 26.5939 104.036 26.1499C103.691 25.7059 103.516 25 103.516 24.029C103.516 23.1379 103.687 22.4448 104.036 21.9465C104.384 21.4482 104.938 21.1991 105.699 21.1991C106.46 21.1991 107.014 21.4482 107.363 21.9465C107.707 22.4448 107.882 23.1411 107.882 24.029C107.882 24.9968 107.711 25.7059 107.363 26.1499Z" fill="white"/>
<path d="M119.731 14.5139H118.426C118.314 14.5139 118.223 14.6039 118.223 14.7151V28.0503C118.223 28.1615 118.314 28.2516 118.426 28.2516H119.731C119.844 28.2516 119.935 28.1615 119.935 28.0503V14.7151C119.935 14.6039 119.844 14.5139 119.731 14.5139Z" fill="white"/>
<path d="M142.144 16.1077H140.758C140.646 16.1077 140.555 16.1978 140.555 16.3089V17.7846C140.555 17.8957 140.646 17.9858 140.758 17.9858H142.144C142.256 17.9858 142.347 17.8957 142.347 17.7846V16.3089C142.347 16.1978 142.256 16.1077 142.144 16.1077Z" fill="white"/>
<path d="M145.377 21.0457C145.004 20.6081 144.504 20.26 143.878 20.0044C143.253 19.7489 142.463 19.6212 141.512 19.6212C140.655 19.6212 139.82 19.7425 139.004 19.9853C138.188 20.228 137.447 20.5219 136.78 20.8732V20.1673C136.78 20.0332 136.712 19.9661 136.576 19.9661H135.271C135.135 19.9661 135.068 20.0332 135.068 20.1673V27.8267C135.068 28.8233 134.79 29.5451 134.233 29.9891C133.675 30.4331 132.963 30.6567 132.092 30.6567C131.737 30.6567 131.38 30.6088 131.012 30.5161C130.645 30.4203 130.306 30.2638 129.993 30.0402C129.681 29.8166 129.426 29.5132 129.229 29.1299C129.033 28.7466 128.933 28.2931 128.933 27.6862C128.933 27.0793 129.042 26.5012 129.268 25.9486C129.49 25.3992 129.726 24.9329 129.971 24.556C130.039 24.4474 130.019 24.3612 129.91 24.2941L128.788 23.6872C128.649 23.6042 128.556 23.6137 128.501 23.7064C128.146 24.2047 127.837 24.8211 127.572 25.5494C127.308 26.284 127.176 27.0474 127.176 27.8427C127.176 28.5582 127.292 29.1874 127.524 29.7336C127.753 30.2798 128.075 30.7397 128.491 31.1166C128.904 31.4935 129.41 31.781 130 31.9758C130.593 32.1707 131.254 32.2697 131.989 32.2697C133.459 32.2697 134.6 31.9151 135.416 31.2093C136.231 30.5002 136.68 29.5132 136.76 28.2483H143.308C143.853 28.2483 144.323 28.1845 144.717 28.0567C145.11 27.9289 145.429 27.7149 145.674 27.4115C145.919 27.1081 146.1 26.712 146.216 26.2201C146.332 25.7282 146.39 25.1277 146.39 24.4123C146.39 23.7639 146.312 23.1506 146.164 22.5725C146.013 21.9912 145.751 21.4833 145.377 21.0457ZM144.497 25.5142C144.452 25.8145 144.359 26.0508 144.223 26.2201C144.088 26.3894 143.898 26.5076 143.653 26.5747C143.408 26.6449 143.095 26.6769 142.715 26.6769H136.78V22.4543C137.079 22.3074 137.408 22.1573 137.769 22.0103C138.127 21.8602 138.508 21.726 138.91 21.6047C139.313 21.4833 139.723 21.3843 140.145 21.3108C140.568 21.2374 140.983 21.199 141.39 21.199C141.999 21.199 142.511 21.2725 142.918 21.4098C143.327 21.5504 143.653 21.758 143.898 22.0263C144.143 22.2946 144.314 22.6268 144.417 23.0165C144.517 23.4093 144.568 23.8533 144.568 24.3516C144.568 24.8499 144.546 25.2108 144.497 25.5142Z" fill="white"/>
<path d="M164.678 28.2516H164.684C164.704 28.2516 164.72 28.2516 164.739 28.2484H166.27C167.125 28.2484 167.737 28.044 168.105 27.6319C168.472 27.2231 168.656 26.5779 168.656 25.7027V14.7119C168.656 14.5778 168.588 14.5107 168.453 14.5107H167.147C167.012 14.5107 166.944 14.5778 166.944 14.7119V25.6037C166.944 26.0093 166.867 26.2872 166.709 26.4437C166.551 26.6002 166.303 26.6769 165.964 26.6769H161.37C161.267 26.6769 161.167 26.6609 161.074 26.6354C161.344 26.4757 161.618 26.2617 161.899 25.9998C162.176 25.7378 162.428 25.4408 162.653 25.1118C162.879 24.7796 163.063 24.4155 163.205 24.0194C163.346 23.6234 163.417 23.2081 163.417 22.7769C163.417 21.8091 163.069 21.0394 162.376 20.474C161.68 19.9087 160.606 19.6244 159.152 19.6244C158.688 19.6244 158.246 19.6563 157.834 19.7298C157.415 19.7969 157.031 19.8831 156.683 19.9917C156.335 20.1003 156.028 20.2153 155.764 20.3367C155.5 20.458 155.287 20.5666 155.122 20.6593C154.987 20.7423 154.919 20.8765 154.919 21.0649V22.2787C154.919 22.3457 154.935 22.4096 154.971 22.4703C155.006 22.531 155.084 22.6013 155.206 22.6811C155.503 22.8951 155.799 23.1123 156.093 23.3263C156.386 23.5403 156.654 23.7927 156.899 24.0833C157.144 24.374 157.357 24.7062 157.54 25.0831C157.724 25.46 157.869 25.9167 157.979 26.4565C157.582 26.5651 157.241 26.629 156.947 26.6482C156.654 26.6673 156.422 26.6769 156.244 26.6769H153.614C153.614 26.6769 153.61 26.6769 153.607 26.6769C153.607 26.6769 153.607 26.6769 153.604 26.6769H153.378C152.821 26.6769 152.376 26.5619 152.044 26.3319C151.712 26.102 151.544 25.757 151.544 25.3003V20.1897C151.544 20.0556 151.476 19.9885 151.341 19.9885H150.035C149.9 19.9885 149.832 20.0556 149.832 20.1897V28.9798C149.832 30.1265 149.284 30.6982 148.182 30.6982H147.711C147.576 30.6982 147.508 30.7653 147.508 30.8995V32.0717C147.508 32.2058 147.576 32.2729 147.711 32.2729L148.262 32.2761C149.336 32.2761 150.151 31.9918 150.709 31.4265C151.267 30.8611 151.544 30.0339 151.544 28.9415V27.6064C151.924 28.0376 152.469 28.2516 153.175 28.2516H153.604C153.604 28.2516 153.607 28.2516 153.611 28.2516C153.611 28.2516 153.611 28.2516 153.614 28.2516H156.386C156.78 28.2516 157.228 28.2069 157.731 28.1206C158.233 28.0344 158.711 27.8683 159.159 27.6255C159.552 27.8683 159.971 28.0344 160.413 28.1206C160.854 28.2069 161.319 28.2516 161.809 28.2516H164.678ZM160.271 25.3482C160.026 25.5558 159.794 25.7283 159.578 25.8624C159.346 24.8946 158.968 24.0578 158.446 23.3583C157.924 22.6588 157.315 22.1126 156.622 21.7229C156.773 21.6303 157.079 21.5185 157.54 21.3907C158.005 21.263 158.54 21.1991 159.152 21.1991C159.491 21.1991 159.813 21.2278 160.119 21.2821C160.426 21.3332 160.69 21.4259 160.906 21.5536C161.122 21.6814 161.296 21.8539 161.425 22.0679C161.554 22.2819 161.618 22.5725 161.618 22.8951C161.618 23.2177 161.554 23.5307 161.425 23.8342C161.296 24.1376 161.132 24.4123 160.935 24.6614C160.735 24.9106 160.516 25.1406 160.271 25.3482Z" fill="white"/>
<path d="M173.022 14.5139H171.717C171.605 14.5139 171.514 14.6039 171.514 14.7151V28.0503C171.514 28.1615 171.605 28.2516 171.717 28.2516H173.022C173.135 28.2516 173.226 28.1615 173.226 28.0503V14.7151C173.226 14.6039 173.135 14.5139 173.022 14.5139Z" fill="white"/>
<path d="M187 27.8811C187.374 28.1302 187.893 28.2548 188.561 28.2548H195.76C196.275 28.2548 196.717 28.2005 197.085 28.0919C197.449 27.9833 197.752 27.798 197.99 27.5361C198.229 27.2742 198.406 26.9196 198.522 26.4757C198.638 26.0317 198.696 25.4727 198.696 24.7988V23.585C198.696 22.3457 198.368 21.4354 197.716 20.8573C197.065 20.2792 196.224 19.9885 195.189 19.9885H193.374L197.046 15.734C197.101 15.6254 197.075 15.5296 196.965 15.4497L195.985 14.6416C195.892 14.5873 195.801 14.6097 195.721 14.7023L191.256 19.915C191.227 19.9406 191.191 19.9853 191.143 20.046C191.095 20.1067 191.072 20.1706 191.072 20.2376V21.3683C191.072 21.5025 191.14 21.5696 191.275 21.5696H194.557C196.108 21.5696 196.881 22.2499 196.881 23.6106V24.8627C196.881 25.214 196.862 25.5015 196.82 25.7314C196.778 25.9614 196.698 26.1467 196.575 26.2872C196.456 26.4278 196.279 26.53 196.047 26.5907C195.814 26.6513 195.508 26.6801 195.128 26.6801H188.867C188.525 26.6801 188.28 26.6034 188.122 26.4469C187.964 26.2904 187.887 26.0125 187.887 25.6069V18.7556C187.887 18.6214 187.819 18.5544 187.684 18.5544H186.378C186.243 18.5544 186.175 18.6214 186.175 18.7556V19.6244H184.17C183.667 19.6244 183.183 19.6946 182.713 19.8352C182.242 19.9757 181.833 20.2057 181.478 20.5219C181.123 20.8381 180.837 21.2534 180.621 21.7644C180.405 22.2787 180.295 22.9111 180.295 23.6649C180.295 24.3005 180.392 24.8467 180.582 25.313C180.772 25.7794 181.036 26.1626 181.368 26.4661C181.7 26.7695 182.097 26.9963 182.552 27.1432C183.009 27.2934 183.503 27.3668 184.031 27.3668C184.479 27.3668 184.895 27.3061 185.276 27.1848C185.656 27.0634 185.985 26.8813 186.256 26.6386C186.378 27.2167 186.627 27.6319 187 27.8811ZM186.175 23.2177C186.175 24.029 186.014 24.6582 185.695 25.1086C185.376 25.559 184.828 25.7857 184.054 25.7857C183.399 25.7857 182.897 25.6101 182.545 25.2491C182.191 24.8914 182.013 24.3612 182.013 23.6617C182.013 22.7322 182.216 22.0902 182.616 21.7325C183.016 21.3747 183.538 21.1959 184.176 21.1959H186.175V23.2177Z" fill="white"/>
<path d="M183.664 15.2996H182.277C182.165 15.2996 182.074 15.3897 182.074 15.5008V16.9765C182.074 17.0876 182.165 17.1777 182.277 17.1777H183.664C183.776 17.1777 183.867 17.0876 183.867 16.9765V15.5008C183.867 15.3897 183.776 15.2996 183.664 15.2996Z" fill="white"/>
<path d="M186.152 15.2996H184.766C184.653 15.2996 184.562 15.3897 184.562 15.5008V16.9765C184.562 17.0876 184.653 17.1777 184.766 17.1777H186.152C186.264 17.1777 186.355 17.0876 186.355 16.9765V15.5008C186.355 15.3897 186.264 15.2996 186.152 15.2996Z" fill="white"/>
<path d="M216.541 16.1077H215.154C215.042 16.1077 214.951 16.1978 214.951 16.3089V17.7846C214.951 17.8957 215.042 17.9858 215.154 17.9858H216.541C216.653 17.9858 216.744 17.8957 216.744 17.7846V16.3089C216.744 16.1978 216.653 16.1077 216.541 16.1077Z" fill="white"/>
<path d="M215.316 13.7441H213.93C213.817 13.7441 213.727 13.8342 213.727 13.9453V15.421C213.727 15.5321 213.817 15.6222 213.93 15.6222H215.316C215.428 15.6222 215.519 15.5321 215.519 15.421V13.9453C215.519 13.8342 215.428 13.7441 215.316 13.7441Z" fill="white"/>
<path d="M220.297 19.9885H218.991C218.856 19.9885 218.788 20.0555 218.788 20.1897V25.6036C218.788 26.0093 218.711 26.2872 218.553 26.4437C218.395 26.6002 218.146 26.6769 217.808 26.6769H217.299C216.754 26.6769 216.319 26.5619 215.993 26.3319C215.667 26.1019 215.503 25.757 215.503 25.3002V21.9273C215.503 21.7931 215.435 21.726 215.3 21.726H213.994C213.859 21.726 213.791 21.7931 213.791 21.9273V25.6036C213.791 26.0093 213.714 26.2872 213.556 26.4437C213.398 26.6002 213.15 26.6769 212.811 26.6769H212.302C211.757 26.6769 211.322 26.5619 210.996 26.3319C210.67 26.1019 210.506 25.757 210.506 25.3002V21.9273C210.506 21.7931 210.438 21.726 210.303 21.726H208.997C208.862 21.726 208.794 21.7931 208.794 21.9273V25.6036C208.794 26.0093 208.717 26.2872 208.559 26.4437C208.401 26.6002 208.153 26.6769 207.814 26.6769H205.919H205.693C205.135 26.6769 204.69 26.5619 204.358 26.3319C204.026 26.1019 203.858 25.757 203.858 25.3002V20.1897C203.858 20.0555 203.791 19.9885 203.655 19.9885H202.35C202.214 19.9885 202.147 20.0555 202.147 20.1897V28.9798C202.147 30.1265 201.599 30.6982 200.496 30.6982H200.025C199.89 30.6982 199.822 30.7653 199.822 30.8994V32.0716C199.822 32.2058 199.89 32.2729 200.025 32.2729L200.577 32.2761C201.65 32.2761 202.466 31.9918 203.024 31.4264C203.581 30.8611 203.858 30.0338 203.858 28.9415V27.6063C204.239 28.0375 204.784 28.2515 205.49 28.2515H205.919H208.12C209.194 28.2515 209.903 27.9002 210.242 27.2007C210.419 27.552 210.67 27.8139 210.996 27.9896C211.322 28.1653 211.702 28.2515 212.137 28.2515H213.117C214.191 28.2515 214.9 27.9002 215.239 27.2007C215.416 27.552 215.667 27.8139 215.993 27.9896C216.319 28.1653 216.699 28.2515 217.134 28.2515H218.114C218.969 28.2515 219.581 28.0471 219.949 27.6351C220.316 27.2262 220.5 26.581 220.5 25.7059V20.1897C220.5 20.0555 220.432 19.9885 220.297 19.9885Z" fill="white"/>
<path d="M214.052 16.1077H212.666C212.554 16.1077 212.463 16.1978 212.463 16.3089V17.7846C212.463 17.8957 212.554 17.9858 212.666 17.9858H214.052C214.164 17.9858 214.255 17.8957 214.255 17.7846V16.3089C214.255 16.1978 214.164 16.1077 214.052 16.1077Z" fill="white"/>
<path d="M76.8267 36.3453H72.9065C72.7905 36.3453 72.7324 36.4028 72.7324 36.5178V47.8121C72.7324 47.927 72.7905 47.9845 72.9065 47.9845L73.5448 47.9813C73.6609 47.9813 73.7189 47.9238 73.7189 47.8089V43.0337C73.7189 42.9666 73.7544 42.9315 73.8221 42.9315H76.8267C77.955 42.9315 78.8383 42.6409 79.4767 42.0595C80.115 41.4782 80.4341 40.6733 80.4341 39.648C80.4341 38.6227 80.115 37.8146 79.4767 37.2269C78.8383 36.6392 77.955 36.3453 76.8267 36.3453ZM78.7706 41.3984C78.3161 41.8104 77.6584 42.0148 76.7944 42.0148H73.8253C73.7576 42.0148 73.7221 41.9797 73.7221 41.9126V37.377C73.7221 37.3099 73.7576 37.2748 73.8253 37.2748H76.7944C77.6552 37.2748 78.3161 37.4856 78.7706 37.9009C79.2252 38.3161 79.4541 38.9038 79.4541 39.6544C79.4541 40.405 79.2252 40.9863 78.7706 41.3984Z" fill="white"/>
<path d="M88.5219 41.7689C88.293 41.0853 87.9094 40.5583 87.3743 40.1942C86.8391 39.8301 86.2008 39.648 85.4496 39.648C84.6985 39.648 84.0602 39.8301 83.5315 40.1942C82.9995 40.5615 82.6191 41.0853 82.3902 41.7689C82.3096 42.0212 82.2484 42.3087 82.2097 42.6345C82.1678 42.9603 82.1484 43.3659 82.1484 43.8929C82.1484 44.42 82.171 44.8384 82.2097 45.1514C82.2484 45.4644 82.3096 45.7455 82.3902 45.9978C82.6191 46.7069 83.0027 47.2435 83.5379 47.6076C84.0731 47.9718 84.7436 48.1538 85.5496 48.1538C86.2395 48.1538 86.8391 48.0261 87.3452 47.7673C87.8514 47.5118 88.2544 47.1828 88.5542 46.7836C88.6251 46.6909 88.6186 46.6111 88.538 46.544L88.1415 46.1863C88.048 46.1192 87.9674 46.1288 87.8997 46.2214C87.6579 46.5185 87.3485 46.7676 86.9745 46.9656C86.6005 47.1669 86.1653 47.2659 85.6012 47.2659C85.037 47.2659 84.5566 47.1349 84.1601 46.8794C83.7636 46.6207 83.467 46.2182 83.2703 45.672C83.2123 45.4772 83.1704 45.276 83.1414 45.0652C83.1124 44.8543 83.0995 44.5765 83.0995 44.2347C83.0995 44.1549 83.1349 44.1133 83.2026 44.1133H88.5735C88.6992 44.1133 88.7637 44.0558 88.7637 43.9408C88.7637 43.3723 88.7476 42.9347 88.7121 42.6249C88.6767 42.3151 88.6154 42.0308 88.5219 41.7689ZM87.7063 43.3308H83.1897C83.122 43.3308 83.0866 43.2956 83.0866 43.2286C83.0866 42.9794 83.0995 42.759 83.122 42.5706C83.1478 42.3821 83.1865 42.2097 83.2445 42.05C83.4057 41.5357 83.6765 41.1492 84.0569 40.8937C84.4374 40.635 84.8855 40.5072 85.44 40.5072C85.9945 40.5072 86.4587 40.6382 86.8391 40.8937C87.2195 41.1524 87.4903 41.5357 87.6515 42.05C87.7095 42.2097 87.7514 42.3821 87.774 42.5706C87.7966 42.759 87.8095 42.9762 87.8095 43.2286C87.8095 43.2956 87.774 43.3308 87.7063 43.3308Z" fill="white"/>
<path d="M96.1888 40.2165C95.9921 40.0441 95.7503 39.9067 95.4634 39.8045C95.1765 39.7023 94.867 39.6512 94.5317 39.6512C93.945 39.6512 93.4679 39.7821 93.1068 40.0441C92.7425 40.306 92.4814 40.6382 92.3202 41.0374H92.304V39.9929C92.304 39.878 92.246 39.8205 92.13 39.8205H91.5432C91.4272 39.8205 91.3691 39.878 91.3691 39.9929V47.812C91.3691 47.927 91.4272 47.9845 91.5432 47.9845L92.13 47.9877C92.246 47.9877 92.304 47.9302 92.304 47.8152V43.2988C92.304 42.9219 92.3427 42.5642 92.4169 42.2288C92.491 41.8934 92.6071 41.6028 92.7618 41.3568C92.9166 41.1109 93.1197 40.9128 93.3744 40.7659C93.6258 40.6158 93.9385 40.5423 94.306 40.5423C94.5704 40.5423 94.809 40.5807 95.0153 40.6541C95.2248 40.7308 95.4247 40.8298 95.6214 40.9544C95.7342 41.0119 95.8212 40.9991 95.8793 40.9192L96.2242 40.4401C96.2919 40.3475 96.2822 40.274 96.1888 40.2165Z" fill="white"/>
<path d="M101.262 36.3485H100.779C100.366 36.3485 100.012 36.39 99.7182 36.4699C99.4249 36.5497 99.1863 36.6839 99.0026 36.8723C98.8188 37.0608 98.6866 37.3131 98.606 37.6325C98.5222 37.9519 98.4835 38.3544 98.4835 38.8463V39.7183C98.4835 39.7853 98.4481 39.8205 98.3804 39.8205H97.5003C97.3842 39.8205 97.3262 39.878 97.3262 39.9929V40.4721C97.3262 40.587 97.3842 40.6445 97.5003 40.6445H98.3804C98.4481 40.6445 98.4835 40.6797 98.4835 40.7467V47.812C98.4835 47.927 98.5416 47.9845 98.6576 47.9845V47.9909H99.2411C99.3572 47.9909 99.4152 47.9334 99.4152 47.8184V40.7531C99.4152 40.6861 99.4507 40.6509 99.5184 40.6509H101.262C101.379 40.6509 101.437 40.5934 101.437 40.4784V39.9993C101.437 39.8843 101.379 39.8269 101.262 39.8269H99.5184C99.4507 39.8269 99.4152 39.7917 99.4152 39.7246V38.7313C99.4152 38.4215 99.4313 38.1723 99.4668 37.9775C99.5022 37.7826 99.5732 37.6325 99.6828 37.5239C99.7924 37.4153 99.9439 37.3419 100.141 37.3003C100.337 37.2588 100.592 37.2397 100.901 37.2397H101.262C101.379 37.2397 101.437 37.1822 101.437 37.0672V36.521C101.437 36.406 101.379 36.3485 101.262 36.3485Z" fill="white"/>
<path d="M109.28 41.7689C109.051 41.0853 108.667 40.5583 108.132 40.1942C107.597 39.8301 106.959 39.648 106.207 39.648C105.456 39.648 104.818 39.8301 104.289 40.1942C103.757 40.5615 103.377 41.0853 103.148 41.7689C103.067 42.0212 103.006 42.3087 102.968 42.6345C102.926 42.9603 102.906 43.3659 102.906 43.8929C102.906 44.42 102.929 44.8384 102.968 45.1514C103.006 45.4644 103.067 45.7455 103.148 45.9978C103.377 46.7069 103.761 47.2435 104.296 47.6076C104.831 47.9718 105.501 48.1538 106.307 48.1538C106.997 48.1538 107.597 48.0261 108.103 47.7673C108.609 47.5118 109.012 47.1828 109.312 46.7836C109.383 46.6909 109.376 46.6111 109.296 46.544L108.899 46.1863C108.806 46.1192 108.725 46.1288 108.658 46.2214C108.416 46.5185 108.106 46.7676 107.732 46.9656C107.358 47.1669 106.923 47.2659 106.359 47.2659C105.795 47.2659 105.314 47.1349 104.918 46.8794C104.521 46.6207 104.225 46.2182 104.028 45.672C103.97 45.4772 103.928 45.276 103.899 45.0652C103.87 44.8543 103.857 44.5765 103.857 44.2347C103.857 44.1549 103.893 44.1133 103.96 44.1133H109.331C109.457 44.1133 109.522 44.0558 109.522 43.9408C109.522 43.3723 109.505 42.9347 109.47 42.6249C109.434 42.3151 109.373 42.0308 109.28 41.7689ZM108.464 43.3308H103.948C103.88 43.3308 103.844 43.2956 103.844 43.2286C103.844 42.9794 103.857 42.759 103.88 42.5706C103.906 42.3821 103.944 42.2097 104.002 42.05C104.164 41.5357 104.434 41.1492 104.815 40.8937C105.195 40.635 105.643 40.5072 106.198 40.5072C106.752 40.5072 107.216 40.6382 107.597 40.8937C107.977 41.1524 108.248 41.5357 108.409 42.05C108.467 42.2097 108.509 42.3821 108.532 42.5706C108.554 42.759 108.567 42.9762 108.567 43.2286C108.567 43.2956 108.532 43.3308 108.464 43.3308Z" fill="white"/>
<path d="M117.633 46.4003L117.149 46.0937C117.056 46.0362 116.982 46.0585 116.924 46.1607C116.682 46.5345 116.405 46.8155 116.095 46.9976C115.783 47.1797 115.386 47.2723 114.902 47.2723C114.361 47.2723 113.906 47.1413 113.539 46.8858C113.171 46.6271 112.907 46.2438 112.746 45.7295C112.665 45.5028 112.607 45.2504 112.572 44.9694C112.536 44.6915 112.52 44.3401 112.52 43.9185C112.52 43.4969 112.536 43.1423 112.572 42.8581C112.607 42.5738 112.665 42.3151 112.746 42.0883C112.907 41.5741 113.171 41.1876 113.539 40.932C113.906 40.6733 114.361 40.5456 114.902 40.5456C115.386 40.5456 115.786 40.6382 116.095 40.8203C116.405 41.0023 116.682 41.2802 116.924 41.6571C116.982 41.7593 117.056 41.7817 117.149 41.7242L117.633 41.4175C117.723 41.3601 117.743 41.2866 117.685 41.194C117.385 40.6925 117.011 40.3092 116.563 40.0473C116.115 39.7854 115.563 39.6544 114.906 39.6544C114.145 39.6544 113.497 39.8397 112.962 40.2102C112.427 40.5807 112.049 41.1013 111.83 41.7753C111.75 42.0372 111.685 42.3374 111.64 42.6728C111.595 43.0082 111.572 43.4202 111.572 43.9121C111.572 44.404 111.598 44.8128 111.64 45.1514C111.685 45.4836 111.75 45.7806 111.83 46.0426C112.049 46.7165 112.427 47.2371 112.962 47.6077C113.497 47.9782 114.145 48.1634 114.906 48.1634C115.56 48.1634 116.115 48.0325 116.563 47.7706C117.011 47.5086 117.385 47.1254 117.685 46.6239C117.743 46.5313 117.727 46.4578 117.633 46.4003Z" fill="white"/>
<path d="M123.066 47.1477H122.738C122.254 47.1477 121.909 47.0551 121.709 46.873C121.506 46.6909 121.406 46.3236 121.406 45.7774V40.7468C121.406 40.6797 121.442 40.6446 121.509 40.6446H123.063C123.179 40.6446 123.237 40.5871 123.237 40.4721V39.993C123.237 39.878 123.179 39.8205 123.063 39.8205H121.509C121.442 39.8205 121.406 39.7854 121.406 39.7183V37.3738C121.406 37.2588 121.348 37.2014 121.232 37.2014H120.645C120.529 37.2014 120.471 37.2588 120.471 37.3738V39.7183C120.471 39.7854 120.436 39.8205 120.368 39.8205H119.504C119.388 39.8205 119.33 39.878 119.33 39.993V40.4721C119.33 40.5871 119.388 40.6446 119.504 40.6446H120.368C120.436 40.6446 120.471 40.6797 120.471 40.7468V45.8285C120.471 46.6398 120.633 47.2084 120.955 47.5406C121.277 47.8696 121.829 48.0357 122.612 48.0357L123.066 48.0388C123.183 48.0388 123.241 47.9814 123.241 47.8664V47.3202C123.241 47.2052 123.183 47.1477 123.066 47.1477Z" fill="white"/>
<path d="M133.991 36.3453H130.071C129.955 36.3453 129.896 36.4028 129.896 36.5178V47.8121C129.896 47.927 129.955 47.9845 130.071 47.9845L130.709 47.9813C130.825 47.9813 130.883 47.9238 130.883 47.8089V43.0337C130.883 42.9666 130.918 42.9315 130.986 42.9315H133.991C135.119 42.9315 136.002 42.6409 136.641 42.0595C137.279 41.4782 137.598 40.6733 137.598 39.648C137.598 38.6227 137.279 37.8146 136.641 37.2269C136.002 36.6392 135.119 36.3453 133.991 36.3453ZM135.931 41.3984C135.477 41.8104 134.819 42.0148 133.955 42.0148H130.986C130.918 42.0148 130.883 41.9797 130.883 41.9126V37.377C130.883 37.3099 130.918 37.2748 130.986 37.2748H133.955C134.816 37.2748 135.477 37.4856 135.931 37.9009C136.386 38.3161 136.615 38.9038 136.615 39.6544C136.615 40.405 136.386 40.9863 135.931 41.3984Z" fill="white"/>
<path d="M152.776 41.7689C152.547 41.0853 152.163 40.5583 151.628 40.1942C151.093 39.8301 150.455 39.648 149.704 39.648C148.952 39.648 148.314 39.8301 147.785 40.1942C147.253 40.5615 146.873 41.0853 146.644 41.7689C146.564 42.0212 146.502 42.3087 146.464 42.6345C146.422 42.9603 146.402 43.3659 146.402 43.8929C146.402 44.42 146.425 44.8384 146.464 45.1514C146.502 45.4644 146.564 45.7455 146.644 45.9978C146.873 46.7069 147.257 47.2435 147.792 47.6076C148.327 47.9718 148.998 48.1538 149.803 48.1538C150.493 48.1538 151.093 48.0261 151.599 47.7673C152.105 47.5118 152.508 47.1828 152.808 46.7836C152.879 46.6909 152.873 46.6111 152.792 46.544L152.395 46.1863C152.302 46.1192 152.221 46.1288 152.154 46.2214C151.912 46.5185 151.602 46.7676 151.228 46.9656C150.854 47.1669 150.419 47.2659 149.855 47.2659C149.291 47.2659 148.811 47.1349 148.414 46.8794C148.017 46.6207 147.721 46.2182 147.524 45.672C147.466 45.4772 147.424 45.276 147.395 45.0652C147.366 44.8543 147.353 44.5765 147.353 44.2347C147.353 44.1549 147.389 44.1133 147.457 44.1133H152.827C152.953 44.1133 153.018 44.0558 153.018 43.9408C153.018 43.3723 153.002 42.9347 152.966 42.6249C152.931 42.3151 152.869 42.0308 152.776 41.7689ZM151.963 43.3308H147.447C147.379 43.3308 147.344 43.2956 147.344 43.2286C147.344 42.9794 147.357 42.759 147.379 42.5706C147.405 42.3821 147.444 42.2097 147.502 42.05C147.663 41.5357 147.934 41.1492 148.314 40.8937C148.694 40.635 149.143 40.5072 149.697 40.5072C150.252 40.5072 150.716 40.6382 151.096 40.8937C151.477 41.1524 151.747 41.5357 151.909 42.05C151.967 42.2097 152.009 42.3821 152.031 42.5706C152.054 42.759 152.067 42.9762 152.067 43.2286C152.067 43.2956 152.031 43.3308 151.963 43.3308Z" fill="white"/>
<path d="M144.968 40.2165C144.771 40.0441 144.53 39.9067 144.243 39.8045C143.956 39.7023 143.646 39.6512 143.311 39.6512C142.724 39.6512 142.247 39.7821 141.886 40.0441C141.522 40.306 141.261 40.6382 141.099 41.0374H141.083V39.9929C141.083 39.878 141.025 39.8205 140.909 39.8205H140.323C140.206 39.8205 140.148 39.878 140.148 39.9929V47.812C140.148 47.927 140.206 47.9845 140.323 47.9845L140.909 47.9877C141.025 47.9877 141.083 47.9302 141.083 47.8152V43.2988C141.083 42.9219 141.122 42.5642 141.196 42.2288C141.27 41.8934 141.386 41.6028 141.541 41.3568C141.696 41.1109 141.899 40.9128 142.154 40.7659C142.405 40.6158 142.718 40.5423 143.085 40.5423C143.35 40.5423 143.588 40.5807 143.795 40.6541C144.004 40.7308 144.204 40.8298 144.401 40.9544C144.513 41.0119 144.601 40.9991 144.659 40.9192L145.004 40.4401C145.071 40.3475 145.062 40.274 144.968 40.2165Z" fill="white"/>
<path d="M158.599 43.417L157.771 43.3308C157.068 43.2605 156.578 43.1168 156.294 42.8932C156.014 42.6696 155.872 42.3598 155.872 41.9605C155.872 41.5037 156.033 41.146 156.355 40.8905C156.678 40.6318 157.158 40.504 157.79 40.504C158.228 40.504 158.651 40.5711 159.06 40.702C159.466 40.833 159.805 40.9799 160.069 41.1396C160.172 41.1971 160.253 41.1811 160.311 41.0885L160.62 40.6765C160.688 40.5839 160.678 40.504 160.585 40.4369C160.253 40.2197 159.853 40.0345 159.386 39.8812C158.921 39.7278 158.406 39.6512 157.841 39.6512C156.929 39.6512 156.22 39.862 155.707 40.2772C155.195 40.6925 154.94 41.277 154.94 42.0308C154.94 42.6792 155.146 43.187 155.562 43.5448C155.978 43.9025 156.571 44.1229 157.342 44.2027L158.17 44.289C158.551 44.3337 158.86 44.3944 159.102 44.4678C159.344 44.5413 159.534 44.6371 159.679 44.7585C159.824 44.8767 159.921 45.0172 159.972 45.1769C160.024 45.3366 160.05 45.5187 160.05 45.7231C160.05 46.2022 159.876 46.5855 159.524 46.8698C159.173 47.1541 158.635 47.2978 157.909 47.2978C157.345 47.2978 156.839 47.2052 156.391 47.0167C155.943 46.8283 155.556 46.6015 155.233 46.3396C155.14 46.2725 155.059 46.2725 154.992 46.3396L154.611 46.7676C154.531 46.8474 154.531 46.9273 154.611 47.0071C154.772 47.1445 154.959 47.2786 155.172 47.4096C155.385 47.5405 155.627 47.6619 155.898 47.7769C156.168 47.8919 156.465 47.9845 156.787 48.0516C157.11 48.1187 157.455 48.1538 157.822 48.1538C158.86 48.1538 159.644 47.927 160.179 47.4735C160.714 47.0167 160.981 46.3939 160.981 45.6081C160.981 44.9693 160.785 44.4647 160.395 44.0941C160.005 43.7236 159.405 43.4968 158.599 43.417Z" fill="white"/>
<path d="M169.379 41.7689C169.15 41.0853 168.767 40.5583 168.232 40.1942C167.697 39.8301 167.058 39.648 166.307 39.648C165.556 39.648 164.918 39.8301 164.389 40.1942C163.857 40.5615 163.477 41.0853 163.248 41.7689C163.167 42.0212 163.106 42.3087 163.067 42.6345C163.025 42.9603 163.006 43.3659 163.006 43.8929C163.006 44.42 163.028 44.8384 163.067 45.1514C163.106 45.4644 163.167 45.7455 163.248 45.9978C163.477 46.7069 163.86 47.2435 164.395 47.6076C164.93 47.9718 165.601 48.1538 166.407 48.1538C167.097 48.1538 167.697 48.0261 168.203 47.7673C168.709 47.5118 169.112 47.1828 169.412 46.7836C169.483 46.6909 169.476 46.6111 169.395 46.544L168.999 46.1863C168.905 46.1192 168.825 46.1288 168.757 46.2214C168.515 46.5185 168.206 46.7676 167.832 46.9656C167.458 47.1669 167.023 47.2659 166.459 47.2659C165.894 47.2659 165.414 47.1349 165.018 46.8794C164.621 46.6207 164.324 46.2182 164.128 45.672C164.07 45.4772 164.028 45.276 163.999 45.0652C163.97 44.8543 163.957 44.5765 163.957 44.2347C163.957 44.1549 163.992 44.1133 164.06 44.1133H169.431C169.557 44.1133 169.621 44.0558 169.621 43.9408C169.621 43.3723 169.605 42.9347 169.57 42.6249C169.534 42.3151 169.473 42.0308 169.379 41.7689ZM168.564 43.3308H164.047C163.979 43.3308 163.944 43.2956 163.944 43.2286C163.944 42.9794 163.957 42.759 163.979 42.5706C164.005 42.3821 164.044 42.2097 164.102 42.05C164.263 41.5357 164.534 41.1492 164.914 40.8937C165.295 40.635 165.743 40.5072 166.297 40.5072C166.852 40.5072 167.316 40.6382 167.697 40.8937C168.077 41.1524 168.348 41.5357 168.509 42.05C168.567 42.2097 168.609 42.3821 168.631 42.5706C168.654 42.759 168.667 42.9762 168.667 43.2286C168.667 43.2956 168.631 43.3308 168.564 43.3308Z" fill="white"/>
<path d="M175.604 39.6512C175.017 39.6512 174.517 39.7694 174.101 40.0089C173.689 40.2485 173.376 40.5679 173.17 40.9671H173.154V39.9929C173.154 39.878 173.096 39.8205 172.98 39.8205H172.393C172.277 39.8205 172.219 39.878 172.219 39.9929V47.812C172.219 47.927 172.277 47.9845 172.393 47.9845H172.98C173.096 47.9845 173.154 47.927 173.154 47.812V42.8165C173.154 42.0978 173.37 41.5389 173.802 41.1396C174.234 40.7404 174.769 40.5391 175.401 40.5391C176.842 40.5391 177.561 41.3536 177.561 42.9858V47.812C177.561 47.927 177.619 47.9845 177.735 47.9845H178.315C178.431 47.9845 178.489 47.927 178.489 47.812V42.7654C178.489 41.7625 178.238 40.9927 177.738 40.4561C177.235 39.9195 176.526 39.6512 175.604 39.6512Z" fill="white"/>
<path d="M184.386 47.1477H184.057C183.573 47.1477 183.228 47.0551 183.028 46.873C182.825 46.6909 182.725 46.3236 182.725 45.7774V40.7468C182.725 40.6797 182.761 40.6446 182.828 40.6446H184.382C184.498 40.6446 184.556 40.5871 184.556 40.4721V39.993C184.556 39.878 184.498 39.8205 184.382 39.8205H182.828C182.761 39.8205 182.725 39.7854 182.725 39.7183V37.3738C182.725 37.2588 182.667 37.2014 182.551 37.2014H181.968C181.852 37.2014 181.794 37.2588 181.794 37.3738V39.7183C181.794 39.7854 181.758 39.8205 181.69 39.8205H180.826C180.71 39.8205 180.652 39.878 180.652 39.993V40.4721C180.652 40.5871 180.71 40.6446 180.826 40.6446H181.69C181.758 40.6446 181.794 40.6797 181.794 40.7468V45.8285C181.794 46.6398 181.955 47.2084 182.277 47.5406C182.6 47.8696 183.151 48.0357 183.934 48.0357L184.386 48.0388C184.502 48.0388 184.56 47.9814 184.56 47.8664V47.3202C184.56 47.2052 184.502 47.1477 184.386 47.1477Z" fill="white"/>
<path d="M192.014 40.2549C191.772 40.0377 191.463 39.8844 191.082 39.7918C190.702 39.6991 190.247 39.6544 189.719 39.6544C189.132 39.6544 188.622 39.7215 188.19 39.8588C187.758 39.9962 187.394 40.1878 187.094 40.4402C187.001 40.5072 186.985 40.5871 187.043 40.6797L187.336 41.1077C187.404 41.1972 187.491 41.2035 187.594 41.1237C187.836 40.9289 188.116 40.7787 188.432 40.6701C188.748 40.5615 189.161 40.5072 189.667 40.5072C190.083 40.5072 190.431 40.5456 190.705 40.6126C190.979 40.6797 191.202 40.7915 191.369 40.9448C191.537 41.0981 191.653 41.2962 191.714 41.5357C191.775 41.7753 191.808 42.0596 191.808 42.3917V43.2286C191.808 43.2957 191.772 43.3308 191.704 43.3308H189.615C188.6 43.3308 187.826 43.5288 187.291 43.9217C186.756 44.3178 186.488 44.947 186.488 45.7455C186.488 46.544 186.743 47.1445 187.249 47.5502C187.755 47.9558 188.423 48.157 189.251 48.157C189.931 48.157 190.486 48.0421 190.918 47.8153C191.35 47.5853 191.646 47.301 191.808 46.9593H191.824V47.8153C191.824 47.9303 191.882 47.9878 191.998 47.9878H192.549C192.665 47.9878 192.723 47.9303 192.723 47.8153V42.3566C192.723 41.8551 192.665 41.4335 192.549 41.0917C192.433 40.75 192.256 40.4721 192.014 40.2549ZM191.811 45.4708C191.811 46.0298 191.595 46.4738 191.163 46.8059C190.731 47.1349 190.157 47.301 189.445 47.301C188.787 47.301 188.284 47.1669 187.933 46.8986C187.581 46.6303 187.407 46.2406 187.407 45.7264C187.407 45.1802 187.591 44.7745 187.952 44.5126C188.313 44.2507 188.909 44.1197 189.738 44.1197H191.708C191.775 44.1197 191.811 44.1549 191.811 44.2219V45.4708Z" fill="white"/>
<path d="M198.616 39.8205H197.062C196.994 39.8205 196.959 39.7854 196.959 39.7183V37.3738C196.959 37.2588 196.901 37.2014 196.785 37.2014H196.198C196.082 37.2014 196.024 37.2588 196.024 37.3738V39.7183C196.024 39.7854 195.989 39.8205 195.921 39.8205H195.057C194.941 39.8205 194.883 39.878 194.883 39.993V40.4721C194.883 40.5871 194.941 40.6446 195.057 40.6446H195.921C195.989 40.6446 196.024 40.6797 196.024 40.7468V45.8285C196.024 46.6398 196.185 47.2084 196.508 47.5406C196.83 47.8696 197.381 48.0357 198.165 48.0357L198.616 48.0388C198.732 48.0388 198.79 47.9814 198.79 47.8664V47.3202C198.79 47.2052 198.732 47.1477 198.616 47.1477H198.287C197.804 47.1477 197.459 47.0551 197.259 46.873C197.056 46.6909 196.956 46.3236 196.956 45.7774V40.7468C196.956 40.6797 196.991 40.6446 197.059 40.6446H198.616C198.732 40.6446 198.79 40.5871 198.79 40.4721V39.993C198.79 39.878 198.732 39.8205 198.616 39.8205Z" fill="white"/>
<path d="M202.017 36.3453H201.256C201.16 36.3453 201.082 36.4226 201.082 36.5178V37.476C201.082 37.5713 201.16 37.6485 201.256 37.6485H202.017C202.113 37.6485 202.191 37.5713 202.191 37.476V36.5178C202.191 36.4226 202.113 36.3453 202.017 36.3453Z" fill="white"/>
<path d="M201.927 39.8205H201.34C201.244 39.8205 201.166 39.8977 201.166 39.993V47.8121C201.166 47.9073 201.244 47.9845 201.34 47.9845H201.927C202.023 47.9845 202.101 47.9073 202.101 47.8121V39.993C202.101 39.8977 202.023 39.8205 201.927 39.8205Z" fill="white"/>
<path d="M211.166 41.7753C210.937 41.0917 210.553 40.5647 210.018 40.2006C209.483 39.8365 208.835 39.6544 208.074 39.6544C207.313 39.6544 206.669 39.8365 206.14 40.2006C205.608 40.5679 205.228 41.0917 204.999 41.7753C204.908 42.0468 204.837 42.347 204.792 42.6728C204.747 42.9986 204.725 43.3947 204.725 43.8961C204.725 44.3976 204.747 44.8097 204.792 45.1354C204.837 45.4612 204.905 45.7583 204.999 46.033C205.231 46.7165 205.611 47.2435 206.14 47.6077C206.669 47.9718 207.313 48.1538 208.074 48.1538C208.835 48.1538 209.483 47.9718 210.018 47.6077C210.553 47.2435 210.937 46.7165 211.166 46.033C211.256 45.7615 211.327 45.4612 211.372 45.1354C211.417 44.8128 211.44 44.388 211.44 43.8961C211.44 43.4043 211.417 42.9986 211.372 42.6728C211.327 42.347 211.259 42.05 211.166 41.7753ZM210.444 44.9821C210.408 45.26 210.35 45.5155 210.27 45.7423C210.108 46.2342 209.838 46.6111 209.457 46.873C209.077 47.1349 208.616 47.2659 208.074 47.2659C207.533 47.2659 207.091 47.1349 206.71 46.873C206.33 46.6079 206.059 46.2342 205.898 45.7423C205.817 45.5155 205.759 45.2632 205.724 44.9821C205.689 44.7042 205.672 44.3305 205.672 43.8961C205.672 43.4618 205.689 43.1072 205.724 42.8261C205.759 42.5482 205.817 42.2927 205.898 42.0659C206.059 41.5741 206.33 41.1972 206.71 40.9352C207.091 40.6733 207.533 40.5424 208.074 40.5424C208.616 40.5424 209.077 40.6733 209.457 40.9352C209.838 41.2004 210.108 41.5741 210.27 42.0659C210.35 42.2927 210.408 42.5482 210.444 42.8261C210.479 43.1072 210.495 43.4522 210.495 43.8961C210.495 44.3401 210.479 44.7042 210.444 44.9821Z" fill="white"/>
<path d="M217.446 39.6512C216.859 39.6512 216.359 39.7694 215.943 40.0089C215.531 40.2485 215.218 40.5679 215.012 40.9671H214.995V39.9929C214.995 39.878 214.937 39.8205 214.821 39.8205H214.235C214.119 39.8205 214.061 39.878 214.061 39.9929V47.812C214.061 47.927 214.119 47.9845 214.235 47.9845H214.821C214.937 47.9845 214.995 47.927 214.995 47.812V42.8165C214.995 42.0978 215.211 41.5389 215.643 41.1396C216.075 40.7404 216.611 40.5391 217.242 40.5391C218.684 40.5391 219.402 41.3536 219.402 42.9858V47.812C219.402 47.927 219.46 47.9845 219.577 47.9845H220.157C220.273 47.9845 220.331 47.927 220.331 47.812V42.7654C220.331 41.7625 220.079 40.9927 219.58 40.4561C219.077 39.9195 218.368 39.6512 217.446 39.6512Z" fill="white"/>
</g>
<defs>
<clipPath id="clip0_6284_35263">
<rect width="220" height="65.75" fill="white" transform="translate(0.5)"/>
</clipPath>
</defs>
</svg>
